<svg viewBox="0 0 512 512" xmlns="http://www.w3.org/2000/svg"><g id="Layer_2" data-name="Layer 2"><g id="Layer_2_copy_9" data-name="Layer 2 copy 9"><g id="_37" data-name="37"><path d="m256 0c-141.38 0-256 114.62-256 256s114.62 256 256 256 256-114.62 256-256-114.62-256-256-256zm-2.61 114.43c17.3 0 31.33 15.3 31.33 34.18s-14 34.18-31.33 34.18-31.34-15.3-31.34-34.18 14.03-34.18 31.34-34.18zm79.78 306.57a18.87 18.87 0 0 1 -18.73-16.57l-4.44-36.09a60.82 60.82 0 0 0 -41-50.25l-13-4.35-12.95 4.35a60.82 60.82 0 0 0 -41 50.25l-4.45 36.09a18.87 18.87 0 0 1 -18.77 16.57 18.88 18.88 0 0 1 -18.73-21.26l4.78-37.47a84.56 84.56 0 0 1 45.65-64.75l6.69-3.39v-59.82s-50.07-36.1-49.4-125.82a17.65 17.65 0 0 1 17.66-17.49 17.64 17.64 0 0 1 17.65 17.32c.39 22.6 3.78 61.88 21.32 83.92l20.2-2.53a91.72 91.72 0 0 1 22.7 0l20.2 2.53c17.54-22 20.93-61.32 21.32-83.92a17.64 17.64 0 0 1 17.65-17.32 17.65 17.65 0 0 1 17.66 17.49c.67 89.72-49.4 125.82-49.4 125.82v59.82l6.69 3.39a84.56 84.56 0 0 1 45.65 64.75l4.78 37.47a18.88 18.88 0 0 1 -18.73 21.26z"/></g></g></g></svg>