<?xml version="1.0" encoding="UTF-8"?>
<svg id="Layer_1" xmlns="http://www.w3.org/2000/svg" version="1.1" xmlns:xlink="http://www.w3.org/1999/xlink" viewBox="0 0 466.7 412.6">
  <!-- Generator: Adobe Illustrator 29.6.1, SVG Export Plug-In . SVG Version: 2.1.1 Build 9)  -->
  <defs>
    <style>
      .st0 {
        fill: #fff;
      }

      .st1 {
        fill: none;
      }

      .st2 {
        clip-path: url(#clippath);
      }
    </style>
    <clipPath id="clippath">
      <rect class="st1" x="52.9" y="37.7" width="360.9" height="360.9"/>
    </clipPath>
  </defs>
  <g class="st2">
    <path class="st0" d="M413.5,143.8c-.8-19.2-3.9-32.4-8.4-43.8-4.6-12.1-11.6-23-20.9-32-9-9.2-20-16.3-31.9-20.8-11.5-4.4-24.6-7.5-43.8-8.4-19.3-.9-25.5-1.1-74.5-1.1s-55.1.2-74.4,1.1c-19.2.8-32.4,4-43.8,8.4-12.1,4.6-23,11.6-32,20.9-9.2,9-16.3,20-20.8,31.9-4.4,11.5-7.5,24.6-8.4,43.8-.9,19.3-1.1,25.5-1.1,74.5s.2,55.1,1.1,74.4c.8,19.2,4,32.4,8.4,43.8,4.6,12.1,11.7,23,20.9,32,9,9.2,20,16.3,31.9,20.8,11.5,4.4,24.6,7.5,43.8,8.4,19.2.8,25.4,1.1,74.4,1.1s55.1-.2,74.4-1.1c19.2-.8,32.4-3.9,43.8-8.4,24.3-9.4,43.4-28.6,52.8-52.8,4.4-11.5,7.5-24.6,8.4-43.8.8-19.2,1.1-25.4,1.1-74.4s0-55.1-.9-74.4h0ZM381,291.2c-.8,17.6-3.7,27.1-6.2,33.5-6.1,15.7-18.5,28.2-34.3,34.3-6.3,2.5-15.9,5.4-33.5,6.2-19,.8-24.7,1.1-72.9,1.1s-53.9-.2-72.9-1.1c-17.6-.8-27.1-3.7-33.5-6.2-7.8-2.9-14.9-7.5-20.7-13.5-6-5.9-10.6-12.9-13.5-20.7-2.5-6.3-5.4-15.9-6.2-33.5-.8-19-1.1-24.7-1.1-72.9s.2-53.9,1.1-72.9c.8-17.6,3.7-27.1,6.2-33.5,2.9-7.8,7.5-14.9,13.5-20.7,5.8-6,12.9-10.6,20.7-13.5,6.3-2.5,15.9-5.4,33.5-6.2,19-.8,24.7-1.1,72.9-1.1s53.9.2,72.9,1.1c17.6.8,27.1,3.7,33.5,6.2,7.8,2.9,14.9,7.5,20.7,13.5,6,5.9,10.6,12.9,13.5,20.7,2.5,6.3,5.4,15.9,6.2,33.5.8,19,1.1,24.7,1.1,72.9s-.2,53.8-1.1,72.8h0ZM381,291.2"/>
  </g>
  <path class="st0" d="M234,125.5c-51.2,0-92.7,41.5-92.7,92.7s41.5,92.7,92.7,92.7,92.7-41.5,92.7-92.7-41.5-92.7-92.7-92.7h0ZM234,278.3c-33.2,0-60.1-26.9-60.1-60.1s26.9-60.1,60.1-60.1,60.1,26.9,60.1,60.1-26.9,60.1-60.1,60.1h0ZM234,278.3"/>
  <path class="st0" d="M352.1,121.8c0,12-9.7,21.6-21.6,21.6s-21.6-9.7-21.6-21.6,9.7-21.6,21.6-21.6,21.6,9.7,21.6,21.6h0ZM352.1,121.8"/>
</svg>