<?xml version="1.0" encoding="UTF-8"?>
<svg id="Layer_1" xmlns="http://www.w3.org/2000/svg" version="1.1" viewBox="0 0 804.8 409.6">
  <!-- Generator: Adobe Illustrator 29.6.1, SVG Export Plug-In . SVG Version: 2.1.1 Build 9)  -->
  <defs>
    <style>
      .st0 {
        fill: #1a1b1f;
      }
    </style>
  </defs>
  <polygon class="st0" points="659.1 79.9 711.2 79.9 711.2 149.4 717 149.4 717 167.7 659.1 167.7 656.9 147.3 693 147.3 693 101.4 658.6 101.4 659.1 79.9"/>
  <polygon class="st0" points="621.7 79.6 646.5 79.6 646.5 122.8 629.8 122.8 629.8 101.2 621.7 101.2 621.7 79.6"/>
  <polygon class="st0" points="590.7 168.1 610.6 168.1 610.2 79.6 542.4 79.6 542.4 150.2 531.5 150.2 531.5 168.1 558.8 168.1 558.8 101.7 591.2 101.7 590.7 168.1"/>
  <polygon class="st0" points="460.5 167.6 460.5 80 392.1 80 392.1 167.6 410.7 167.6 410.7 102 442.9 102 442.9 167.6 460.5 167.6"/>
  <path class="st0" d="M381.1,168.1v-74.8s-3.3-13.3-20.5-13.7-41.2,0-41.2,0v18.6h38.5s4.3.8,4.3,7.1c0,6.3,0,62.8,0,62.8h19Z"/>
  <polygon class="st0" points="287.4 168.1 306.9 168.1 306.9 79.6 276.7 79.6 276.7 99 287.5 99 287.4 168.1"/>
  <path class="st0" d="M244.7,100.3h-7.8v-20.8s27.1-.3,27.1,0,0,72.8,0,72.8c0,0,1.2,15.6-18.4,15.7-19.6.2-69.4,0-69.4,0l-.9-68.7h-6.8v-19.8s25.5,0,25.5,0v68h17.4v-48.5h-10.6v-19.4s28.6,0,28.6,0v69.3h15.5l-.2-48.5Z"/>
  <polygon class="st0" points="160.1 168.1 157.5 79.6 86 79.6 86 147.5 76.1 147.5 76.1 168.1 108 168.1 105.6 99.9 138.1 99.4 140.7 168.1 160.1 168.1"/>
  <path class="st0" d="M724.8,321.3l-19.2,35.7h-13.3s12.4-25.7,13.6-26.9c1.2-1.2,18.9-8.9,18.9-8.9Z"/>
  <polygon class="st0" points="693.5 326.9 679.8 356.7 664.9 356.7 677.7 331.1 693.5 326.9"/>
  <path class="st0" d="M545.6,357h31.1l.9-58.7,4.6-3.6,30.8,62.3h30.6l-23.3-43.2,18.2-13.1s6.3-3.9,6.8-11.6.9-62.6.9-62.6l-27.6-.7.9,50s-7.5,12.4-9.4,12.4-31.5-62.5-31.5-62.5h-31.1l19.9,41.4s-20.8,12.8-21.8,18.2c-1,5.4,0,71.7,0,71.7Z"/>
  <path class="st0" d="M481.2,357h29.3v-108.8s.8-22.1-16.2-22.5c-22.1-.4-86.1,0-86.1,0v29.1s73.2,1.2,73.2,1.2l-.2,100.9Z"/>
  <polygon class="st0" points="319 225.8 374 225.8 374 284.2 344.9 284.2 343.7 254 319 253.2 319 225.8"/>
  <polygon class="st0" points="163.4 225.8 164.1 253 250.1 253.9 252.1 357 284.1 357 282 225.8 163.4 225.8"/>
  <polygon class="st0" points="163.3 281.1 194.3 281.1 196.3 355.3 165.3 355.3 163.3 281.1"/>
  <polygon class="st0" points="127.5 225.8 144.6 225.8 125.5 265.6 107.1 265.6 127.5 225.8"/>
  <polygon class="st0" points="93.7 225.8 111.5 225.8 91.5 265.6 74.8 264.3 93.7 225.8"/>
</svg>