<?xml version="1.0" encoding="UTF-8"?>
<svg id="Layer_1" xmlns="http://www.w3.org/2000/svg" version="1.1" viewBox="0 0 466.7 412.6">
  <!-- Generator: Adobe Illustrator 29.6.1, SVG Export Plug-In . SVG Version: 2.1.1 Build 9)  -->
  <defs>
    <style>
      .st0 {
        fill: #fff;
      }
    </style>
  </defs>
  <path class="st0" d="M244.1,42.3c84.3,0,152.5,67.8,152.5,151.4s-68.3,151.4-152.5,151.4-51.9-6.8-73.7-18.8l-84.5,26.8,27.5-81.2c-13.9-22.8-21.9-49.6-21.9-78.1,0-83.6,68.3-151.4,152.5-151.4ZM372.3,193.7c0-70.2-57.5-127.3-128.3-127.3s-128.3,57.1-128.3,127.3,9.1,53.6,24.4,74.6l-16,47.3,49.3-15.7c20.2,13.3,44.5,21,70.5,21,70.7,0,128.3-57.1,128.3-127.3Z"/>
  <path d="M244.1,66.4c70.7,0,128.3,57.1,128.3,127.3s-57.5,127.3-128.3,127.3-50.3-7.8-70.5-21l-49.3,15.7,16-47.3c-15.3-21-24.4-46.8-24.4-74.6,0-70.2,57.5-127.3,128.3-127.3ZM318.9,246.2c3.1-8.7,3.1-16.1,2.2-17.7s-3.4-2.5-7.2-4.3c-3.7-1.9-22.1-10.8-25.5-12.1-3.4-1.2-6-1.9-8.4,1.9-2.5,3.7-9.7,12.1-11.8,14.5-2.2,2.5-4.4,2.8-8.1.9-3.8-1.9-15.8-5.8-30.1-18.4-11.1-9.9-18.6-22-20.8-25.7-2.2-3.7-.2-5.7,1.7-7.6s3.7-4.3,5.6-6.5,2.5-3.7,3.7-6.2c1.3-2.5.6-4.6-.3-6.5-.9-1.9-8.4-20.1-11.5-27.5-3.1-7.4-6.2-7.1-8.4-7.1s-6.2.6-6.2.6c0,0-7.5.9-10.9,4.6-3.4,3.7-13.1,12.7-13.1,30.9s13.4,35.9,15.2,38.4c1.9,2.5,25.9,41.2,63.9,56,38,14.8,38,9.9,44.9,9.3,6.8-.6,22.1-9,25.2-17.6Z"/>
  <path class="st0" d="M321.1,228.5c.9,1.5.9,9-2.2,17.7-3.1,8.7-18.4,17-25.2,17.6-6.9.6-6.9,5.6-44.9-9.3-38-14.9-62-53.6-63.9-56-1.9-2.5-15.2-20.1-15.2-38.4s9.7-27.2,13.1-30.9c3.4-3.7,10.9-4.6,10.9-4.6,0,0,4-.6,6.2-.6s5.3-.3,8.4,7.1c3.1,7.4,10.6,25.7,11.5,27.5.9,1.9,1.6,4,.3,6.5-1.2,2.5-1.9,4-3.7,6.2s-3.9,4.8-5.6,6.5-3.8,3.9-1.7,7.6c2.2,3.7,9.7,15.9,20.8,25.7,14.3,12.6,26.3,16.5,30.1,18.4,3.7,1.9,5.9,1.6,8.1-.9,2.2-2.5,9.4-10.8,11.8-14.5,2.5-3.7,5-3.1,8.4-1.9,3.4,1.3,21.8,10.2,25.5,12.1,3.7,1.9,6.2,2.8,7.2,4.3Z"/>
</svg>