<?xml version="1.0" encoding="UTF-8"?>
<svg id="Layer_1" data-name="Layer 1" xmlns="http://www.w3.org/2000/svg" viewBox="0 0 768 409.62">
  <defs>
    <style>
      .cls-1 {
        fill: #fcfcfc;
      }
    </style>
  </defs>
  <polygon class="cls-1" points="655.18 79.91 707.26 79.91 707.26 149.36 713.05 149.36 713.05 167.74 655.18 167.74 652.96 147.32 689.05 147.32 689.05 101.36 654.67 101.36 655.18 79.91"/>
  <polygon class="cls-1" points="617.73 79.57 642.58 79.57 642.58 122.81 625.9 122.81 625.9 101.19 617.73 101.19 617.73 79.57"/>
  <polygon class="cls-1" points="586.75 168.09 606.67 168.09 606.27 79.57 538.48 79.57 538.5 150.21 527.52 150.21 527.52 168.09 554.84 168.09 554.84 101.7 587.26 101.7 586.75 168.09"/>
  <polygon class="cls-1" points="456.54 167.62 456.54 80.04 388.11 80.04 388.11 167.62 406.75 167.62 406.75 102 438.92 102 438.92 167.62 456.54 167.62"/>
  <path class="cls-1" d="M377.13,168.09v-74.81s-3.29-13.26-20.52-13.7c-17.23-.45-41.21,0-41.21,0v18.62h38.5s4.34.77,4.28,7.09c-.06,6.32,0,62.81,0,62.81h18.96Z"/>
  <polygon class="cls-1" points="283.43 168.09 303.01 168.09 303.01 79.57 272.71 79.57 272.71 98.98 283.6 98.98 283.43 168.09"/>
  <path class="cls-1" d="M240.71,100.33h-7.83v-20.76s27.06-.33,27.06,0,0,72.77,0,72.77c0,0,1.19,15.57-18.38,15.73-19.57.17-69.44.01-69.44.01l-.86-68.74h-6.81v-19.77s25.52,0,25.52,0v67.96h17.38v-48.53h-10.55v-19.44s28.58,0,28.58,0v69.29h15.5l-.17-48.53Z"/>
  <polygon class="cls-1" points="156.11 168.09 153.58 79.57 82.06 79.57 82.07 147.48 72.2 147.48 72.2 168.09 104.03 168.09 101.64 99.9 134.15 99.4 136.71 168.09 156.11 168.09"/>
  <path class="cls-1" d="M720.88,321.28l-19.23,35.74h-13.28s12.43-25.7,13.62-26.89c1.19-1.19,18.89-8.85,18.89-8.85Z"/>
  <polygon class="cls-1" points="689.56 326.89 675.86 356.72 660.96 356.72 673.73 331.15 689.56 326.89"/>
  <path class="cls-1" d="M541.64,357.02h31.15l.85-58.72,4.6-3.57,30.81,62.3h30.64l-23.32-43.23,18.21-13.11s6.3-3.91,6.81-11.57.85-62.64.85-62.64l-27.57-.68.85,50.04s-7.49,12.43-9.36,12.43-31.49-62.47-31.49-62.47h-31.15l19.91,41.36s-20.77,12.77-21.79,18.21c-1.02,5.45,0,71.66,0,71.66Z"/>
  <path class="cls-1" d="M477.26,357.02h29.29v-108.77s.84-22.14-16.2-22.47c-22.07-.43-86.11,0-86.11,0v29.11s73.21,1.19,73.21,1.19l-.19,100.94Z"/>
  <polygon class="cls-1" points="315.08 225.79 370.06 225.79 370.07 284.17 340.96 284.17 339.77 254.04 315.09 253.19 315.08 225.79"/>
  <polygon class="cls-1" points="159.46 225.79 160.2 253.02 246.15 253.87 248.2 357.02 280.2 357.02 278.05 225.79 159.46 225.79"/>
  <polygon class="cls-1" points="159.35 281.11 190.32 281.11 192.37 355.32 161.39 355.32 159.35 281.11"/>
  <polygon class="cls-1" points="123.6 225.79 140.62 225.79 121.56 265.62 103.18 265.62 123.6 225.79"/>
  <polygon class="cls-1" points="89.73 225.79 107.6 225.79 87.52 265.62 70.84 264.26 89.73 225.79"/>
</svg>