<?xml version="1.0" encoding="UTF-8"?>
<!-- Copied optimized logo reference -->
<svg xmlns="http://www.w3.org/2000/svg" viewBox="0 0 804.8 409.6" aria-hidden="true">
  <g fill="#1a1b1f">
    <polygon points="659.1 79.9 711.2 79.9 711.2 149.4 717 149.4 717 167.7 659.1 167.7 656.9 147.3 693 147.3 693 101.4 658.6 101.4 659.1 79.9"/>
    <polygon points="621.7 79.6 646.5 79.6 646.5 122.8 629.8 122.8 629.8 101.2 621.7 101.2 621.7 79.6"/>
    <polygon points="590.7 168.1 610.6 168.1 610.2 79.6 542.4 79.6 542.4 150.2 531.5 150.2 531.5 168.1 558.8 168.1 558.8 101.7 591.2 101.7 590.7 168.1"/>
    <polygon points="460.5 167.6 460.5 80 392.1 80 392.1 167.6 410.7 167.6 410.7 102 442.9 102 442.9 167.6 460.5 167.6"/>
    <path d="M381.1,168.1v-74.8s-3.3-13.3-20.5-13.7-41.2,0-41.2,0v18.6h38.5s4.3.8,4.3,7.1c0,6.3,0,62.8,0,62.8h19Z"/>
    <polygon points="287.4 168.1 306.9 168.1 306.9 79.6 276.7 79.6 276.7 99 287.5 99 287.4 168.1"/>
    <path d="M244.7,100.3h-7.8v-20.8s27.1-.3,27.1,0,0,72.8,0,72.8c0,0,1.2,15.6-18.4,15.7-19.6.2-69.4,0-69.4,0l-.9-68.7h-6.8v-19.8s25.5,0,25.5,0v68h17.4v-48.5h-10.6v-19.4s28.6,0,28.6,0v69.3h15.5l-.2-48.5Z"/>
    <polygon points="160.1 168.1 157.5 79.6 86 79.6 86 147.5 76.1 147.5 76.1 168.1 108 168.1 105.6 99.9 138.1 99.4 140.7 168.1 160.1 168.1"/>
  </g>
</svg>
