<?xml version="1.0" encoding="UTF-8"?>
<svg id="object" xmlns="http://www.w3.org/2000/svg" viewBox="0 0 133.61 123.65">
  <defs>
    <style>
      .cls-1 {
        fill: #4665a7;
      }

      .cls-2 {
        fill: #fff;
      }

      .cls-3 {
        fill: #475a7c;
      }
    </style>
  </defs>
  <circle class="cls-1" cx="66.8" cy="61.82" r="59.14"/>
  <path class="cls-3" d="M123.69,78.05l-26.36-32.07c2.64,3.84,4.14,8.24,4.14,12.91,0,15.04-15.52,27.23-34.66,27.23-3.32,0-6.54-.38-9.58-1.06l-8.02,5.31,24.79,30.15c23.82-2.89,43.28-19.93,49.69-42.47Z"/>
  <g>
    <path class="cls-2" d="M66.8,31.67c-19.14,0-34.66,12.19-34.66,27.23,0,10.37,7.39,19.39,18.25,23.99l-1.23,7.52,8.06-5.34c3.04.69,6.25,1.06,9.58,1.06,19.14,0,34.66-12.19,34.66-27.23s-15.52-27.23-34.66-27.23Z"/>
    <polygon class="cls-3" points="90.66 53.03 72.95 58.62 60.73 48.49 60.72 48.5 60.7 48.49 43.01 63.15 60.72 57.57 72.93 67.7 72.95 67.69 72.97 67.7 90.66 53.03"/>
  </g>
</svg>