<?xml version="1.0" encoding="UTF-8"?>
<svg id="object" xmlns="http://www.w3.org/2000/svg" viewBox="0 0 133.61 123.65">
  <defs>
    <style>
      .cls-1 {
        fill: #4665a7;
      }

      .cls-2 {
        fill: #fff;
      }

      .cls-3 {
        fill: #475a7c;
      }
    </style>
  </defs>
  <circle class="cls-1" cx="66.8" cy="61.66" r="59.14"/>
  <path class="cls-2" d="M66.8,46.46c-7.09-21.48-38.02-16.08-31.61,11.94,5.23,22.87,31.61,31.61,31.61,31.61,0,0,26.38-8.75,31.61-31.61,6.41-28.02-24.53-33.42-31.61-11.94Z"/>
  <g>
    <path class="cls-3" d="M66.8,46.46c.19-.56.39-1.1.61-1.62l-4.8-5.88-.03.03c1.77,1.97,3.23,4.46,4.23,7.47Z"/>
    <path class="cls-3" d="M124.56,74.44l-28.99-35.48h-.16c3.39,4.21,5.01,10.73,3.01,19.45-5.23,22.87-31.61,31.61-31.61,31.61,0,0-14.09-4.67-23.71-16.11h0l37.08,45.38c22.13-5.11,39.5-22.64,44.4-44.85Z"/>
  </g>
</svg>