<?xml version="1.0" encoding="UTF-8"?>
<svg id="object" xmlns="http://www.w3.org/2000/svg" viewBox="0 0 133.61 123.65">
  <defs>
    <style>
      .cls-1 {
        fill: #4665a7;
      }

      .cls-2 {
        fill: #fff;
      }

      .cls-3 {
        fill: #475a7c;
      }
    </style>
  </defs>
  <circle class="cls-1" cx="66.99" cy="61.72" r="59.14"/>
  <g>
    <path class="cls-2" d="M87.92,37.3h-41.86c-6.47,0-11.72,5.25-11.72,11.72v20.62c0,6.47,5.25,11.72,11.72,11.72h35.97v7.24s7.51-2.62,8.53-7.54c5.2-1.2,9.09-5.85,9.09-11.42v-20.62c0-6.47-5.25-11.72-11.72-11.72Z"/>
    <rect class="cls-1" x="46.75" y="49.47" width="40.47" height="3.48" rx="1.74" ry="1.74"/>
    <rect class="cls-1" x="46.75" y="57.18" width="40.47" height="3.48" rx="1.74" ry="1.74"/>
    <rect class="cls-1" x="46.94" y="64.88" width="40.47" height="3.48" rx="1.74" ry="1.74"/>
  </g>
  <path class="cls-3" d="M124.56,75.31l-27.46-33.61h-.03c1.61,2.01,2.57,4.55,2.57,7.32v20.62c0,5.57-3.88,10.22-9.09,11.42-1.02,4.92-8.53,7.54-8.53,7.54v-7.24h-35.97c-3.35,0-6.37-1.41-8.51-3.67l35.05,42.89c25.47-2.4,46.24-20.94,51.96-45.29Z"/>
</svg>