<?xml version="1.0" encoding="UTF-8"?>
<svg id="object" xmlns="http://www.w3.org/2000/svg" viewBox="0 0 133.61 123.65">
  <defs>
    <style>
      .cls-1 {
        fill: #4665a7;
      }

      .cls-2 {
        fill: #fff;
      }

      .cls-3 {
        fill: #475a7c;
      }
    </style>
  </defs>
  <circle class="cls-1" cx="66.8" cy="61.04" r="59.14"/>
  <g>
    <path class="cls-2" d="M98,49.35h-21.98c.16-.31.31-.63.46-.96,1.61-3.33,2.56-8.81,1-13.85-.57-1.85-1.39-3.76-3.85-4.62-1.01-.35-3.98-.37-3.98,1.57,0,0,.92,5.73,0,8.45-1.4,4.16-3.81,7.36-5.37,9.4h-4.38v32.95h32.32c2.13,0,3.87-1.73,3.87-3.87v-.51c0-2.13-1.73-3.87-3.87-3.87h2.05c2.13,0,3.87-1.73,3.87-3.87v-.51c0-2.13-1.73-3.87-3.87-3.87h1.87c2.13,0,3.87-1.73,3.87-3.87v-.51c0-2.13-1.73-3.87-3.87-3.87h1.84c2.13,0,3.87-1.73,3.87-3.87v-.51c0-2.13-1.73-3.87-3.87-3.87Z"/>
    <rect class="cls-2" x="36.56" y="46.45" width="19.65" height="39.7" rx="2.75" ry="2.75"/>
    <circle class="cls-3" cx="50.44" cy="80.17" r="2.84"/>
  </g>
  <path class="cls-3" d="M100.82,50.53h-.04c.68.7,1.09,1.64,1.09,2.69v.51c0,2.13-1.73,3.87-3.87,3.87h-1.84c2.13,0,3.87,1.73,3.87,3.87v.51c0,2.13-1.73,3.87-3.87,3.87h-1.87c2.13,0,3.87,1.73,3.87,3.87v.51c0,2.13-1.73,3.87-3.87,3.87h-2.05c2.13,0,3.87,1.73,3.87,3.87v.51c0,2.13-1.73,3.87-3.87,3.87h-32.32v-31.77h-.87l-3.33-4.08h-.62c.61,0,1.11.5,1.11,1.11v37.49c0,.61-.5,1.11-1.11,1.11h-17.43c-.34,0-.63-.15-.84-.39v.04l28.07,34.35c.63.02,1.27.03,1.9.03,26.7,0,49.26-17.69,56.61-41.99l-22.6-27.66Z"/>
  <g>
    <path class="cls-2" d="M86.63,39.09h0c0-3.55-2.88-6.43-6.43-6.43h0c3.55,0,6.43-2.88,6.43-6.43h0c0,3.55,2.88,6.43,6.43,6.43h0c-3.55,0-6.43,2.88-6.43,6.43Z"/>
    <rect class="cls-2" x="93.06" y="39.09" width="6.89" height="6.89" rx="3.45" ry="3.45"/>
    <path class="cls-2" d="M59.92,46.91h0c0-3.55-2.88-6.43-6.43-6.43h0c3.55,0,6.43-2.88,6.43-6.43h0c0,3.55,2.88,6.43,6.43,6.43h0c-3.55,0-6.43,2.88-6.43,6.43Z"/>
    <rect class="cls-2" x="44.82" y="26.72" width="6.89" height="6.89" rx="3.45" ry="3.45"/>
    <rect class="cls-2" x="66.35" y="86.15" width="6.89" height="6.89" rx="3.45" ry="3.45"/>
    <rect class="cls-2" x="101.87" y="66.3" width="6.89" height="6.89" rx="3.45" ry="3.45"/>
  </g>
  <path class="cls-3" d="M77.49,34.55c1.56,5.04.6,10.52-1,13.85-.16.32-.31.64-.46.96h14.57l-14.51-17.75h-.02c.71.87,1.1,1.92,1.42,2.95Z"/>
</svg>