<?xml version="1.0" encoding="UTF-8"?>
<svg id="OBJECTS" xmlns="http://www.w3.org/2000/svg" viewBox="0 0 296.99 295.27">
  <defs>
    <style>
      .cls-1 {
        fill: #fff;
      }

      .cls-2 {
        fill: none;
      }

      .cls-3 {
        fill: #32ba46;
      }
    </style>
  </defs>
  <path class="cls-3" d="M139.53,250.99c-19.61,0-38.85-5.19-55.89-15.04l-43.66,15.04,8.97-46.23c-14.07-19.28-21.48-41.96-21.48-65.82,0-61.79,50.27-112.06,112.06-112.06s112.06,50.27,112.06,112.06-50.26,112.05-112.06,112.05Z"/>
  <g>
    <g>
      <path class="cls-2" d="M139.53,71.17c-37.42,0-67.76,30.34-67.76,67.76,0,15.73,5.41,30.16,14.4,41.66l-4.53,23.33,22.01-7.58c10.41,6.53,22.69,10.36,35.89,10.36,37.42,0,67.77-30.34,67.77-67.76s-30.34-67.76-67.77-67.76Z"/>
      <path class="cls-1" d="M139.53,212.14c-12.81,0-25.38-3.39-36.51-9.83l-28.52,9.83,5.86-30.21c-9.19-12.59-14.03-27.41-14.03-43,0-40.37,32.84-73.21,73.21-73.21s73.21,32.84,73.21,73.21-32.84,73.21-73.21,73.21ZM104.34,190.34l2.21,1.38c9.94,6.23,21.35,9.53,32.99,9.53,34.37,0,62.32-27.95,62.32-62.32s-27.95-62.31-62.32-62.31-62.31,27.95-62.31,62.31c0,13.98,4.58,27.23,13.24,38.3l1.53,1.96-3.2,16.5,15.55-5.36Z"/>
    </g>
    <path class="cls-1" d="M102.58,110.81s4.3-7.51,7.8-7.94c3.5-.43,8.01-.43,9.22,1.86,1.22,2.29,6.65,15.59,6.65,15.59,0,0,.93,2.29-.5,4.51-1.43,2.22-4.65,5.43-4.65,5.43,0,0-1.79,2.29,0,4.72,1.79,2.43,4.56,6.9,10.3,12.63,5.73,5.74,16.73,9.82,16.73,9.82,0,0,1.57.21,2.58-.79,1-1,6.44-7.79,6.44-7.79,0,0,1.74-2.25,4.65-.93,2.9,1.32,15.45,7.58,15.45,7.58,0,0,1.47.54,1.47,2.75s-.9,7.64-2.73,9.47c-1.83,1.84-7.2,7.49-15.26,7.49s-27.25-6.56-37.47-16.78c-10.23-10.23-19.31-20.6-21.45-30.04-2.15-9.44-1.86-13.71.78-17.59Z"/>
  </g>
</svg>