<?xml version="1.0" encoding="UTF-8"?>
<svg id="OBJECTS" xmlns="http://www.w3.org/2000/svg" viewBox="0 0 296.99 295.27">
  <defs>
    <style>
      .cls-1 {
        fill: #395398;
      }

      .cls-2 {
        fill: #fff;
      }
    </style>
  </defs>
  <path class="cls-1" d="M253.01,148.11c0-62.06-50.31-112.38-112.37-112.38S28.26,86.04,28.26,148.11s50.31,112.37,112.37,112.37c.32,0,.64-.02.96-.02v-78.4h-27.06v-31.34h27.06v-23.11c0-26.82,16.38-41.42,40.3-41.42,11.46,0,21.31.85,24.18,1.23v28.03h-16.59c-13.01,0-15.53,6.19-15.53,15.26v20.01h31.03l-4.04,31.34h-26.99v73.4c45.79-14.2,79.06-56.89,79.06-107.35Z"/>
  <path class="cls-2" d="M200.94,182.06l4.04-31.34h-31.03v-20.01c0-9.07,2.52-15.25,15.53-15.25h16.59v-28.03c-2.87-.38-12.72-1.23-24.18-1.23-23.92,0-40.3,14.6-40.3,41.42v23.11h-27.06v31.34h27.06v78.4c11.26-.1,22.12-1.83,32.36-5v-73.4h26.99Z"/>
</svg>